<svg xmlns="http://www.w3.org/2000/svg" xmlns:xlink="http://www.w3.org/1999/xlink" data-svgdocument="" id="_lozZXmrQ4Bjc2v8Jjk5tP" class="fl-svgdocument" x="0" y="0" style="overflow: hidden;" viewBox="117.15 147.44 277.69 135.89">
  <defs id="_OCOhh_n_vN0Rio0Fz3bQR" transform="matrix(1.1005045175552368, 0, 0, 1.1005045175552368, -29.51445770263672, -26.393905639648438)">
    <linearGradient id="g__egde7b3b7_39" x1="0%" y1="50%" x2="100%" y2="50%">
      <stop id="_egdec1aa6_3" offset="0%" style="stop-color: rgb(170, 29, 32); stop-opacity: 1;"/>
      <stop id="_egdec1aa6_4" offset="100%" style="stop-color: rgb(255, 99, 71); stop-opacity: 1;"/>
    </linearGradient>
    <linearGradient id="g__egde7b3b7_209" x1="0%" y1="50%" x2="100%" y2="50%">
      <stop id="_egdec1aa6_5" offset="0%" style="stop-color: rgb(85, 14, 14); stop-opacity: 1;"/>
      <stop id="_egdec1aa6_6" offset="100%" style="stop-color: rgb(255, 99, 71); stop-opacity: 1;"/>
    </linearGradient>
  </defs>
  <path text="Med-eQuip" text-anchor="middle" font-size="100" letter-spacing="0" side="left" offset="0.5" dx="0" dy="0" space="preserve" font-family="Karma" font-scale="contain" transform="matrix(0.5939242243766785, 0, 0, 0.5939242243766785, 255.21022033691406, 231.7678985595703)" x="0" y="0" fill="#124274" font-weight="400" data-fl-textpath="" id="_bACKzYL2clyS4dqlExFb0" path="M-282.54998779296875 19.400001525878906C-140 19.400001525878906 145.0999755859375 19.400001525878906 287.64996337890625 19.400001525878906" font-style="normal" d="M-157.35001220703126 19.400001525878906L-157.35001220703126 19.400001525878906L-175.95001220703125 19.400001525878906L-175.95001220703125 18.600001525878906Q-175.95001220703125 16.000001525878908 -174.45001220703125 15.200001525878907L-174.45001220703125 15.200001525878907Q-173.75001220703126 14.900001525878906 -172.75001220703126 14.800001525878907L-172.75001220703126 14.800001525878907L-168.55001220703127 14.600001525878906L-172.35001220703126-37.699998474121095L-191.05001220703127 7.1000015258789055Q-193.55001220703127 7.700001525878907 -195.55001220703127 7.400001525878906L-195.55001220703127 7.400001525878906L-215.05001220703124-35.99999847412109L-218.85001220703126 14.400001525878906L-211.55001220703124 15.000001525878906Q-211.15001220703127 19.400001525878906 -214.35001220703126 19.400001525878906L-214.35001220703126 19.400001525878906L-232.45001220703125 19.400001525878906L-232.45001220703125 18.600001525878906Q-232.45001220703125 16.000001525878908 -231.05001220703124 15.200001525878907L-231.05001220703124 15.200001525878907Q-230.35001220703126 14.900001525878906 -229.35001220703126 14.800001525878907L-229.35001220703126 14.800001525878907L-224.85001220703126 14.600001525878906L-220.25001220703126-43.39999847412109L-227.35001220703126-43.99999847412109Q-227.85001220703126-48.4999984741211 -224.55001220703124-48.4999984741211L-224.55001220703124-48.4999984741211L-212.65001220703127-48.4999984741211L-192.45001220703125-3.0999984741210938L-173.85001220703126-48.4999984741211L-161.45001220703125-48.4999984741211Q-158.25001220703126-48.4999984741211 -158.65001220703124-43.99999847412109L-158.65001220703124-43.99999847412109L-165.65001220703124-43.39999847412109L-161.15001220703124 14.200001525878907L-154.55001220703127 15.000001525878906Q-154.15001220703124 19.400001525878906 -157.35001220703126 19.400001525878906ZM-110.05000000000001-11.699998474121095L-110.05000000000001-6.8999984741210945L-141.45000000000002-6.8999984741210945Q-141.55-5.8999984741210945 -141.55-3.799998474121093L-141.55-3.799998474121093Q-141.55 4.700001525878907 -137.95000000000002 9.950001525878907Q-134.35000000000002 15.200001525878907 -126.75000000000001 15.200001525878907Q-119.15 15.200001525878907 -112.25000000000001 9.800001525878907L-112.25000000000001 9.800001525878907Q-111.05000000000001 10.800001525878907 -111.05000000000001 12.300001525878907L-111.05000000000001 12.300001525878907Q-111.05000000000001 15.100001525878906 -116.50000000000001 18.000001525878908Q-121.95000000000002 20.900001525878906 -128.75 20.900001525878906L-128.75 20.900001525878906Q-138.05 20.900001525878906 -143.60000000000002 14.800001525878907Q-149.15 8.700001525878907 -149.15-3.799998474121093Q-149.15-16.299998474121097 -142.55-23.64999847412109Q-135.95000000000002-30.999998474121092 -126.95000000000002-30.999998474121092Q-117.95000000000002-30.999998474121092 -113.95000000000002-25.299998474121097Q-109.95000000000002-19.599998474121094 -110.05000000000001-11.699998474121095L-110.05000000000001-11.699998474121095ZM-140.85000000000002-11.399998474121094L-117.35000000000001-11.399998474121094Q-117.35000000000001-18.099998474121094 -119.95000000000002-22.049998474121097Q-122.55000000000001-25.999998474121092 -127.50000000000001-25.999998474121092Q-132.45000000000002-25.999998474121092 -135.95000000000002-22.099998474121094Q-139.45000000000002-18.199998474121095 -140.85000000000002-11.399998474121094L-140.85000000000002-11.399998474121094ZM-60.45 20.900001525878906L-60.45 20.900001525878906Q-67.05000000000001 20.900001525878906 -67.55000000000001 13.600001525878906L-67.55000000000001 13.600001525878906Q-74.85 20.900001525878906 -83.25 20.900001525878906Q-91.65 20.900001525878906 -97.2 14.750001525878906Q-102.75 8.600001525878906 -103.05-3.6499984741210945Q-103.35000000000001-15.899998474121091 -97-23.449998474121095Q-90.65-30.999998474121092 -79.25-30.999998474121092L-79.25-30.999998474121092Q-73.15-30.999998474121092 -67.65-28.39999847412109L-67.65-28.39999847412109L-67.65-43.699998474121095L-72.85-44.2999984741211Q-75.25-44.49999847412109 -75.25-48.599998474121094L-75.25-48.599998474121094L-60.75-50.39999847412109L-60.75 15.400001525878906L-54.35 16.200001525878907Q-54.550000000000004 20.900001525878906 -60.45 20.900001525878906ZM-67.65 8.700001525878907L-67.65-20.699998474121095Q-73.05000000000001-25.599998474121094 -80.7-25.599998474121094Q-88.35-25.599998474121094 -92-19.749998474121092Q-95.65-13.899998474121091 -95.65-5.099998474121094Q-95.65 3.700001525878907 -92.05 9.350001525878906Q-88.45 15.000001525878906 -81.05000000000001 15.000001525878906L-81.05000000000001 15.000001525878906Q-77.35 15.000001525878906 -74.45 13.500001525878906Q-71.55000000000001 12.000001525878906 -67.65 8.700001525878907L-67.65 8.700001525878907ZM-47.75002441406251-2.5999984741210938L-47.75002441406251-8.499998474121092L-18.550024414062506-8.499998474121092L-18.550024414062506-2.5999984741210938L-47.75002441406251-2.5999984741210938ZM 29.24998779296875-11.699998474121095L 29.24998779296875-6.8999984741210945L-2.150012207031251-6.8999984741210945Q-2.2500122070312507-5.8999984741210945 -2.2500122070312507-3.799998474121093L-2.2500122070312507-3.799998474121093Q-2.2500122070312507 4.700001525878907  1.349987792968749 9.950001525878907Q 4.949987792968749 15.200001525878907  12.54998779296875 15.200001525878907Q 20.149987792968748 15.200001525878907  27.049987792968746 9.800001525878907L 27.049987792968746 9.800001525878907Q 28.24998779296875 10.800001525878907  28.24998779296875 12.300001525878907L 28.24998779296875 12.300001525878907Q 28.24998779296875 15.100001525878906  22.799987792968746 18.000001525878908Q 17.34998779296875 20.900001525878906  10.54998779296875 20.900001525878906L 10.54998779296875 20.900001525878906Q 1.2499877929687493 20.900001525878906 -4.300012207031251 14.800001525878907Q-9.85001220703125 8.700001525878907 -9.85001220703125-3.799998474121093Q-9.85001220703125-16.299998474121097 -3.2500122070312507-23.64999847412109Q 3.3499877929687507-30.999998474121092  12.34998779296875-30.999998474121092Q 21.34998779296875-30.999998474121092  25.34998779296875-25.299998474121097Q 29.34998779296875-19.599998474121094  29.24998779296875-11.699998474121095L 29.24998779296875-11.699998474121095ZM-1.5500122070312514-11.399998474121094L 21.949987792968752-11.399998474121094Q 21.949987792968752-18.099998474121094  19.34998779296875-22.049998474121097Q 16.74998779296875-25.999998474121092  11.79998779296875-25.999998474121092Q 6.849987792968751-25.999998474121092  3.3499877929687507-22.099998474121094Q-0.15001220703125107-18.199998474121095 -1.5500122070312514-11.399998474121094L-1.5500122070312514-11.399998474121094ZM 93.0499755859375 25.400001525878906L 93.0499755859375 25.400001525878906Q 93.8499755859375 26.400001525878906  93.8499755859375 28.450001525878907Q 93.8499755859375 30.500001525878908  92.0499755859375 32.00000152587891Q 90.2499755859375 33.50000152587891  87.5499755859375 33.50000152587891Q 84.8499755859375 33.50000152587891  81.9999755859375 32.75000152587891Q 79.1499755859375 32.00000152587891  75.9499755859375 30.350001525878906Q 72.7499755859375 28.700001525878907  70.5999755859375 27.450001525878907Q 68.4499755859375 26.200001525878907  64.7999755859375 23.850001525878906Q 61.1499755859375 21.500001525878908  59.9499755859375 20.800001525878905L 59.9499755859375 20.800001525878905Q 49.0499755859375 19.800001525878905  42.7999755859375 11.050001525878907Q 36.5499755859375 2.300001525878905  36.2499755859375-12.099998474121094L 36.2499755859375-12.099998474121094Q 35.9499755859375-29.099998474121094  43.7499755859375-39.449998474121095Q 51.5499755859375-49.7999984741211  65.6499755859375-49.7999984741211L 65.6499755859375-49.7999984741211Q 73.7499755859375-49.7999984741211  79.9499755859375-45.7999984741211L 79.9499755859375-45.7999984741211Q 92.3499755859375-37.7999984741211  92.6499755859375-16.199998474121095L 92.6499755859375-16.199998474121095Q 92.8499755859375-1.1999984741210952  86.6499755859375 8.550001525878907Q 80.4499755859375 18.300001525878905  68.7499755859375 20.400001525878906L 68.7499755859375 20.400001525878906Q 82.1499755859375 27.000001525878908  88.0499755859375 27.000001525878908L 88.0499755859375 27.000001525878908Q 90.5499755859375 27.000001525878908  93.0499755859375 25.400001525878906ZM 64.5499755859375-44.49999847412109Q 54.0499755859375-44.39999847412109  48.8499755859375-36.2999984741211Q 43.6499755859375-28.199998474121095  43.6499755859375-14.449998474121095Q 43.6499755859375-0.6999984741210952  48.6999755859375 7.450001525878907Q 53.7499755859375 15.600001525878906  64.2499755859375 15.550001525878907Q 74.7499755859375 15.500001525878906  80.0499755859375 7.450001525878907Q 85.3499755859375-0.5999984741210938  85.3499755859375-14.349998474121094Q 85.3499755859375-28.099998474121094  80.1999755859375-36.349998474121094Q 75.0499755859375-44.599998474121094  64.5499755859375-44.49999847412109ZM 99.44998168945312-25.299998474121097L 99.44998168945312-26.599998474121094Q 99.44998168945312-29.499998474121092  102.24998168945314-29.499998474121092L 102.24998168945314-29.499998474121092L 113.94998168945312-29.499998474121092L 113.94998168945312 0.0000015258789076710855Q 113.94998168945312 7.400001525878906  117.04998168945313 11.150001525878906Q 120.14998168945313 14.900001525878906  126.29998168945313 14.900001525878906Q 132.44998168945312 14.900001525878906  138.74998168945314 9.400001525878906L 138.74998168945314 9.400001525878906L 138.74998168945314-24.799998474121097L 131.04998168945315-25.299998474121097Q 130.6499816894531-29.499998474121092  133.74998168945314-29.499998474121092L 133.74998168945314-29.499998474121092L 145.6499816894531-29.499998474121092L 145.6499816894531 13.700001525878907L 150.54998168945315 14.200001525878907Q 152.84998168945313 14.400001525878906  152.84998168945313 18.500001525878908L 152.84998168945313 18.500001525878908L 140.74998168945314 19.500001525878908L 139.44998168945312 14.200001525878907Q 132.74998168945314 20.900001525878906  124.14998168945313 20.900001525878906L 124.14998168945313 20.900001525878906Q 117.24998168945314 20.900001525878906  112.14998168945313 16.000001525878908Q 107.04998168945313 11.100001525878906  107.04998168945313 0.6000015258789055L 107.04998168945313 0.6000015258789055L 107.04998168945313-24.799998474121097L 99.44998168945312-25.299998474121097ZM 178.8499755859375 19.400001525878906L 178.8499755859375 19.400001525878906L 159.8499755859375 19.400001525878906L 159.8499755859375 18.600001525878906Q 159.8499755859375 16.200001525878907  161.24997558593748 15.600001525878906L 161.24997558593748 15.600001525878906Q 161.9499755859375 15.200001525878907  162.9499755859375 15.100001525878906L 162.9499755859375 15.100001525878906L 167.14997558593748 14.900001525878906L 167.14997558593748-24.699998474121095L 161.9499755859375-25.099998474121094Q 159.5499755859375-25.39999847412109  159.5499755859375-29.39999847412109L 159.5499755859375-29.39999847412109L 174.0499755859375-30.999998474121092L 174.0499755859375 14.700001525878907L 181.64997558593748 15.300001525878907Q 182.0499755859375 19.400001525878906  178.8499755859375 19.400001525878906ZM 173.3499755859375-40.14999847412109Q 171.9499755859375-38.7999984741211  169.74997558593748-38.7999984741211Q 167.5499755859375-38.7999984741211  166.1999755859375-40.14999847412109Q 164.8499755859375-41.49999847412109  164.8499755859375-43.699998474121095Q 164.8499755859375-45.89999847412109  166.1999755859375-47.2999984741211Q 167.5499755859375-48.69999847412109  169.74997558593748-48.69999847412109Q 171.9499755859375-48.69999847412109  173.3499755859375-47.2999984741211Q 174.74997558593748-45.89999847412109  174.74997558593748-43.699998474121095Q 174.74997558593748-41.49999847412109  173.3499755859375-40.14999847412109ZM 198.14998779296874-30.499998474121092L 199.54998779296875-23.599998474121094Q 207.34998779296873-30.999998474121092  215.54998779296875-30.999998474121092Q 223.74998779296874-30.999998474121092  229.29998779296875-24.849998474121094Q 234.84998779296876-18.699998474121095  235.09998779296876-6.449998474121095Q 235.34998779296876 5.800001525878907  229.04998779296875 13.350001525878906Q 222.74998779296874 20.900001525878906  211.34998779296873 20.900001525878906L 211.34998779296873 20.900001525878906Q 205.64998779296874 20.900001525878906  199.74998779296874 18.300001525878905L 199.74998779296874 18.300001525878905L 199.74998779296874 36.10000152587891L 207.34998779296873 36.7000015258789Q 207.74998779296874 40.800001525878905  204.54998779296875 40.800001525878905L 204.54998779296875 40.800001525878905L 185.54998779296875 40.800001525878905L 185.54998779296875 40.00000152587891Q 185.54998779296875 37.60000152587891  186.94998779296876 37.00000152587891L 186.94998779296876 37.00000152587891Q 187.74998779296874 36.7000015258789  192.84998779296873 36.300001525878905L 192.84998779296873 36.300001525878905L 192.84998779296873-24.299998474121097L 187.54998779296875-24.89999847412109Q 185.24998779296874-25.099998474121094  185.24998779296874-28.799998474121097L 185.24998779296874-28.799998474121097L 198.14998779296874-30.499998474121092ZM 199.74998779296874-18.89999847412109L 199.74998779296874 10.600001525878906Q 204.94998779296876 15.500001525878906  212.74998779296874 15.500001525878906Q 220.54998779296875 15.500001525878906  224.09998779296876 9.600001525878906Q 227.64998779296874 3.700001525878907  227.64998779296874-5.099998474121094Q 227.64998779296874-13.899998474121091  224.09998779296876-19.499998474121092Q 220.54998779296875-25.099998474121094  213.14998779296874-25.099998474121094L 213.14998779296874-25.099998474121094Q 209.44998779296876-25.099998474121094  206.54998779296875-23.599998474121094Q 203.64998779296874-22.099998474121094  199.74998779296874-18.89999847412109L 199.74998779296874-18.89999847412109Z"/>
  <path text="Consulting" text-anchor="middle" font-size="100" letter-spacing="0" side="left" offset="0.5" dx="0" dy="0" space="preserve" href="" font-family="Montserrat" font-scale="contain" transform="matrix(0.2903946042060852, 0, 0, 0.2903946042060852, 256.69696044921875, 277.5472717285156)" x="0" y="0" fill="url(#g__egde7b3b7_39)" data-fl-textpath="" id="_BV8dN3jNM7w4h0tzBWsKw" d="M-231.84999999999997 0.6Q-242.24999999999997 0.6 -250.59999999999997-4Q-258.95-8.6 -263.7-16.75Q-268.45-24.9 -268.45-35L-268.45-35Q-268.45-45.1 -263.7-53.25Q-258.95-61.4 -250.54999999999998-66Q-242.14999999999998-70.6 -231.74999999999997-70.6L-231.74999999999997-70.6Q-223.95-70.6 -217.34999999999997-68Q-210.74999999999997-65.4 -206.14999999999998-60.4L-206.14999999999998-60.4L-210.84999999999997-55.7Q-219.04999999999998-64 -231.54999999999998-64L-231.54999999999998-64Q-239.84999999999997-64 -246.64999999999998-60.2Q-253.45-56.4 -257.29999999999995-49.8Q-261.15-43.2 -261.15-35L-261.15-35Q-261.15-26.8 -257.29999999999995-20.2Q-253.45-13.6 -246.64999999999998-9.8Q-239.84999999999997-6 -231.54999999999998-6L-231.54999999999998-6Q-218.95-6 -210.84999999999997-14.4L-210.84999999999997-14.4L-206.14999999999998-9.7Q-210.74999999999997-4.7 -217.39999999999998-2.05Q-224.04999999999998 0.6 -231.84999999999997 0.6L-231.84999999999997 0.6ZM-172.64999999999995 0.5Q-180.24999999999994 0.5 -186.34999999999997-2.95Q-192.44999999999996-6.4 -195.94999999999996-12.5Q-199.44999999999996-18.6 -199.44999999999996-26.3L-199.44999999999996-26.3Q-199.44999999999996-34 -195.94999999999996-40.1Q-192.44999999999996-46.2 -186.34999999999997-49.6Q-180.24999999999994-53 -172.64999999999995-53L-172.64999999999995-53Q-165.04999999999995-53 -158.94999999999996-49.6Q-152.84999999999997-46.2 -149.39999999999995-40.1Q-145.94999999999996-34 -145.94999999999996-26.3L-145.94999999999996-26.3Q-145.94999999999996-18.6 -149.39999999999995-12.5Q-152.84999999999997-6.4 -158.94999999999996-2.95Q-165.04999999999995 0.5 -172.64999999999995 0.5L-172.64999999999995 0.5ZM-172.64999999999995-5.8Q-167.04999999999995-5.8 -162.59999999999997-8.35Q-158.14999999999995-10.9 -155.64999999999995-15.6Q-153.14999999999995-20.3 -153.14999999999995-26.3L-153.14999999999995-26.3Q-153.14999999999995-32.3 -155.64999999999995-37Q-158.14999999999995-41.7 -162.59999999999997-44.25Q-167.04999999999995-46.8 -172.64999999999995-46.8L-172.64999999999995-46.8Q-178.24999999999994-46.8 -182.69999999999996-44.25Q-187.14999999999995-41.7 -189.69999999999996-37Q-192.24999999999994-32.3 -192.24999999999994-26.3L-192.24999999999994-26.3Q-192.24999999999994-20.3 -189.69999999999996-15.6Q-187.14999999999995-10.9 -182.69999999999996-8.35Q-178.24999999999994-5.8 -172.64999999999995-5.8L-172.64999999999995-5.8ZM-104.64999999999996-53Q-94.74999999999997-53 -88.89999999999996-47.25Q-83.04999999999997-41.5 -83.04999999999997-30.5L-83.04999999999997-30.5L-83.04999999999997 0L-90.14999999999996 0L-90.14999999999996-29.8Q-90.14999999999996-38 -94.24999999999997-42.3Q-98.34999999999997-46.6 -105.94999999999996-46.6L-105.94999999999996-46.6Q-114.44999999999996-46.6 -119.39999999999996-41.55Q-124.34999999999997-36.5 -124.34999999999997-27.6L-124.34999999999997-27.6L-124.34999999999997 0L-131.44999999999996 0L-131.44999999999996-52.6L-124.64999999999996-52.6L-124.64999999999996-42.9Q-121.74999999999997-47.7 -116.59999999999997-50.35Q-111.44999999999996-53 -104.64999999999996-53L-104.64999999999996-53ZM-49.64999999999996 0.5Q-56.04999999999996 0.5 -61.89999999999996-1.35Q-67.74999999999996-3.2 -71.04999999999997-6L-71.04999999999997-6L-67.84999999999997-11.6Q-64.54999999999997-9 -59.54999999999996-7.35Q-54.54999999999996-5.7 -49.14999999999996-5.7L-49.14999999999996-5.7Q-41.94999999999996-5.7 -38.499999999999964-7.95Q-35.04999999999996-10.2 -35.04999999999996-14.3L-35.04999999999996-14.3Q-35.04999999999996-17.2 -36.94999999999996-18.85Q-38.849999999999966-20.5 -41.749999999999964-21.35Q-44.64999999999996-22.2 -49.44999999999996-23L-49.44999999999996-23Q-55.849999999999966-24.2 -59.749999999999964-25.45Q-63.64999999999996-26.7 -66.39999999999996-29.7Q-69.14999999999996-32.7 -69.14999999999996-38L-69.14999999999996-38Q-69.14999999999996-44.6 -63.64999999999996-48.8Q-58.14999999999996-53 -48.349999999999966-53L-48.349999999999966-53Q-43.249999999999964-53 -38.14999999999996-51.65Q-33.04999999999996-50.3 -29.749999999999964-48.1L-29.749999999999964-48.1L-32.849999999999966-42.4Q-39.349999999999966-46.9 -48.349999999999966-46.9L-48.349999999999966-46.9Q-55.14999999999996-46.9 -58.599999999999966-44.5Q-62.04999999999996-42.1 -62.04999999999996-38.2L-62.04999999999996-38.2Q-62.04999999999996-35.2 -60.099999999999966-33.4Q-58.14999999999996-31.6 -55.249999999999964-30.75Q-52.349999999999966-29.9 -47.249999999999964-29L-47.249999999999964-29Q-40.94999999999996-27.8 -37.14999999999996-26.6Q-33.349999999999966-25.4 -30.649999999999963-22.5Q-27.94999999999996-19.6 -27.94999999999996-14.5L-27.94999999999996-14.5Q-27.94999999999996-7.6 -33.69999999999996-3.55Q-39.44999999999996 0.5 -49.64999999999996 0.5L-49.64999999999996 0.5ZM 25.450000000000045-52.6L 32.55000000000004-52.6L 32.55000000000004 0L 25.750000000000043 0L 25.750000000000043-9.6Q 22.950000000000045-4.8  18.05000000000004-2.15Q 13.150000000000041 0.5  6.850000000000044 0.5L 6.850000000000044 0.5Q-3.4499999999999567 0.5 -9.399999999999958-5.25Q-15.349999999999957-11 -15.349999999999957-22.1L-15.349999999999957-22.1L-15.349999999999957-52.6L-8.249999999999957-52.6L-8.249999999999957-22.8Q-8.249999999999957-14.5 -4.149999999999956-10.2Q-0.04999999999995808-5.9  7.55000000000004-5.9L 7.55000000000004-5.9Q 15.850000000000044-5.9  20.65000000000004-10.95Q 25.450000000000045-16  25.450000000000045-25L 25.450000000000045-25L 25.450000000000045-52.6ZM 52.45000000000004 0L 52.45000000000004-74.2L 59.55000000000004-74.2L 59.55000000000004 0L 52.45000000000004 0ZM 104.75000000000003-8.3L 107.25000000000003-3.2Q 105.25000000000003-1.4  102.30000000000004-0.45Q 99.35000000000004 0.5  96.15000000000003 0.5L 96.15000000000003 0.5Q 88.75000000000003 0.5  84.75000000000003-3.5Q 80.75000000000003-7.5  80.75000000000003-14.8L 80.75000000000003-14.8L 80.75000000000003-46.6L 71.35000000000004-46.6L 71.35000000000004-52.6L 80.75000000000003-52.6L 80.75000000000003-64.1L 87.85000000000004-64.1L 87.85000000000004-52.6L 103.85000000000004-52.6L 103.85000000000004-46.6L 87.85000000000004-46.6L 87.85000000000004-15.2Q 87.85000000000004-10.5  90.20000000000003-8.05Q 92.55000000000004-5.6  96.95000000000003-5.6L 96.95000000000003-5.6Q 99.15000000000003-5.6  101.20000000000003-6.3Q 103.25000000000003-7  104.75000000000003-8.3L 104.75000000000003-8.3ZM 120.15000000000003 0L 120.15000000000003-52.6L 127.25000000000003-52.6L 127.25000000000003 0L 120.15000000000003 0ZM 123.75000000000003-64.1Q 121.55000000000003-64.1  120.05000000000003-65.6Q 118.55000000000003-67.1  118.55000000000003-69.2L 118.55000000000003-69.2Q 118.55000000000003-71.2  120.05000000000003-72.7Q 121.55000000000003-74.2  123.75000000000003-74.2L 123.75000000000003-74.2Q 125.95000000000003-74.2  127.45000000000003-72.75Q 128.95000000000002-71.3  128.95000000000002-69.3L 128.95000000000002-69.3Q 128.95000000000002-67.1  127.45000000000003-65.6Q 125.95000000000003-64.1  123.75000000000003-64.1L 123.75000000000003-64.1ZM 173.85000000000002-53Q 183.75000000000003-53  189.60000000000002-47.25Q 195.45000000000005-41.5  195.45000000000005-30.5L 195.45000000000005-30.5L 195.45000000000005 0L 188.35000000000002 0L 188.35000000000002-29.8Q 188.35000000000002-38  184.25000000000003-42.3Q 180.15000000000003-46.6  172.55000000000004-46.6L 172.55000000000004-46.6Q 164.05000000000004-46.6  159.10000000000002-41.55Q 154.15000000000003-36.5  154.15000000000003-27.6L 154.15000000000003-27.6L 154.15000000000003 0L 147.05000000000004 0L 147.05000000000004-52.6L 153.85000000000002-52.6L 153.85000000000002-42.9Q 156.75000000000003-47.7  161.90000000000003-50.35Q 167.05000000000004-53  173.85000000000002-53L 173.85000000000002-53ZM 256.85-52.6L 263.65000000000003-52.6L 263.65000000000003-6.4Q 263.65000000000003 7  257.1 13.45Q 250.55000000000004 19.9  237.35000000000002 19.9L 237.35000000000002 19.9Q 230.05000000000004 19.9  223.50000000000003 17.75Q 216.95000000000005 15.6  212.85000000000005 11.8L 212.85000000000005 11.8L 216.45000000000005 6.4Q 220.25000000000003 9.8  225.70000000000005 11.7Q 231.15000000000003 13.6  237.15000000000003 13.6L 237.15000000000003 13.6Q 247.15000000000003 13.6  251.85000000000002 8.95Q 256.55000000000007 4.3  256.55000000000007-5.5L 256.55000000000007-5.5L 256.55000000000007-12.2Q 253.25000000000006-7.2  247.90000000000003-4.6Q 242.55000000000004-2  236.05000000000004-2L 236.05000000000004-2Q 228.65000000000003-2  222.60000000000005-5.25Q 216.55000000000004-8.5  213.10000000000005-14.35Q 209.65000000000003-20.2  209.65000000000003-27.6L 209.65000000000003-27.6Q 209.65000000000003-35  213.10000000000005-40.8Q 216.55000000000004-46.6  222.55000000000004-49.8Q 228.55000000000004-53  236.05000000000004-53L 236.05000000000004-53Q 242.75000000000006-53  248.15000000000003-50.3Q 253.55000000000004-47.6  256.85-42.5L 256.85-42.5L 256.85-52.6ZM 236.75000000000003-8.3Q 242.45000000000005-8.3  247.05000000000004-10.75Q 251.65000000000003-13.2  254.20000000000005-17.6Q 256.75000000000006-22  256.75000000000006-27.6L 256.75000000000006-27.6Q 256.75000000000006-33.2  254.20000000000005-37.55Q 251.65000000000003-41.9  247.10000000000002-44.35Q 242.55000000000004-46.8  236.75000000000003-46.8L 236.75000000000003-46.8Q 231.05000000000004-46.8  226.50000000000003-44.4Q 221.95000000000005-42  219.40000000000003-37.6Q 216.85000000000005-33.2  216.85000000000005-27.6L 216.85000000000005-27.6Q 216.85000000000005-22  219.40000000000003-17.6Q 221.95000000000005-13.2  226.50000000000003-10.75Q 231.05000000000004-8.3  236.75000000000003-8.3L 236.75000000000003-8.3Z"/>
  <g id="_egdec1aa6_7" transform="matrix(0.7615723013877869, 0, 0, 0.7615723013877869, 217.95945739746094, 136.7196807861328)" fill="url(#g__egde7b3b7_209)">
    <svg xmlns="http://www.w3.org/2000/svg" xmlns:xlink="http://www.w3.org/1999/xlink" id="_egdec1aa6_8" version="1.1" x="0px" y="0px" viewBox="0 0 100 100" width="100" height="100">
      <path id="_egdec1aa6_9" d="M45.8,69c0.5-0.4,1-0.6,1.4-0.7c-0.4-0.4-0.7-0.9-0.7-1.6l0,0c0-0.7,0.1-1.1,0.2-1.5h-0.1l0,0  c-0.2,0-1.2,0-2.2-0.4c-0.1,0.5-0.2,1.1-0.2,1.9l0,0c0,1.4,0.4,2.3,1,3C45.3,69.4,45.6,69.2,45.8,69z M55.7,57.8  c0.1,0.4,0.2,0.9,0.2,1.7l0,0c0,1.2-0.7,1.8-1.4,2.1c0.1,0.1,0.2,0.1,0.3,0.2c0.5,0.4,1,1,1.2,1.7c1.1-0.6,2.2-1.8,2.2-4l0,0  c0-1-0.1-1.9-0.4-2.5C57.2,57.4,56.5,57.7,55.7,57.8z M41.6,55.7c0.2-0.4,0.5-0.7,0.9-1c0.3-0.2,0.6-0.4,0.8-0.5  c-0.6-0.4-1.2-1.1-1.2-2.2l0,0c0-0.9,0.3-1.5,0.8-1.9c-0.6,0-1.6-0.2-2.6-0.5c-0.3,0.6-0.5,1.4-0.5,2.3l0,0  C39.9,53.7,40.6,54.9,41.6,55.7z M53.9,71.6c-0.3,0.2-0.6,0.3-0.9,0.4c0.2,0.4,0.4,0.9,0.4,1.9l0,0c0,0.9-0.4,1.5-0.9,1.9  c0.1,0.1,0.3,0.1,0.5,0.2c0.3,0.2,0.7,0.5,1,1c0.6-0.7,1.1-1.6,1.1-3.1l0,0c0-1.1-0.2-2-0.4-2.7C54.4,71.3,54.1,71.5,53.9,71.6z   M53.2,31.4v1.8c0,0.2-0.2,0.4-0.4,0.4H47c-0.2,0-0.4-0.2-0.4-0.4v-1.8C46.6,31.4,53.2,31.4,53.2,31.4z M42.6,26.6  c0,0-0.1-0.2-0.3-0.1c-2.1,1.1-7.5,1.2-6-7.7c0.1-0.3-0.1-0.5-0.4-0.6c-4-0.5-20.7-2.7-24.5-3.2c-0.5-0.1-0.6,0.1-0.5,0.4  c0.7,1.3,2.7,4.4,4.5,4.5c2.1,0.1,14.4,0.6,16,0.6c0.4,0,0.2,0.5,0.1,0.5s-13-0.1-16-0.1c-0.4,0-0.5,0.2-0.3,0.5  c0.8,1,2.7,3.1,4.1,2.9c1.8-0.3,11.4-1.2,12.8-1.3c0.3,0,0.3,0.5,0.1,0.5s-10.6,1.6-13,1.9c-0.3,0-0.3,0.2-0.1,0.4  c0.9,0.7,2.9,2.2,4.5,1.8c2-0.5,8.2-2.4,9.4-2.7c0.3-0.1,0.3,0.4,0.1,0.4c-0.2,0.1-7.4,3-9.2,3.7c-0.3,0.1-0.3,0.2-0.1,0.4  c0.9,0.5,3.3,1.9,4.3,1.3c1.1-0.7,5.1-3.2,6-3.8c0.2-0.1,0.5,0.2,0.3,0.4c-0.2,0.2-4.3,3.2-5.5,4.1c-0.2,0.1-0.1,0.3,0.1,0.4  c0.9,0.2,2.9,0.6,4.2-0.6c1.4-1.2,2.9-2.6,3.4-3c0.2-0.2,0.6,0.1,0.4,0.2c-0.1,0.1-3.1,3.1-4.1,4c-0.2,0.2-0.1,0.3,0.2,0.4  c0.9,0.1,3,0.3,4.1-1.1s1.7-2.3,2-2.6c0.2-0.2,0.6-0.1,0.5,0.1s-1.6,2.5-2.2,3.4c-0.1,0.2-0.1,0.3,0.2,0.3c0.9-0.1,3.2-0.4,3.8-1.2  c0.8-1.1,1.7-0.7,2-0.3c0.3,0.4,0.4-0.2,0.4-0.2l0.3-1.7L42.6,26.6z M28.9,32.5c-0.6-0.2-0.9,0.2-0.9,0.2s-1.9,1.4-2.2,1.6  c-0.3,0.2-0.2,0.4,0.2,0.5c1,0.2,2.9,0.5,4.2-0.7c0.2-0.1,0.3-0.3,0.5-0.5c0.1-0.1,0.4-0.4-0.1-0.6C30,32.8,29.4,32.7,28.9,32.5   M37.9,33.6c-0.3,0-0.4,0.1-0.5,0.2c-0.1,0.1-0.4,0.6-0.4,0.7c0,0.1-0.1,0.3,0.2,0.3c0.8-0.1,2.4-0.3,2.9-0.9c0.1-0.1,0-0.2-0.2-0.2  C39.3,33.7,38.6,33.6,37.9,33.6 M10.4,16.1c-0.6-1-1.6-1-1.6-1l-4.5-0.7c-0.5-0.1-1-0.2-1.3-0.2c-0.5-0.1-0.7,0.1-0.5,0.5  c0.8,1.4,2.8,4.9,4.8,5.1c0.7,0.1,2.4,0.2,4.6,0.4c0.6,0,0.8-0.5,0.6-0.7s-0.3-0.4-0.4-0.7L10.4,16.1z M33.1,33.4  c-0.3-0.1-0.5,0.2-0.5,0.2s-1,1-1.2,1.2s-0.1,0.3,0.2,0.4c0.8,0.1,2.5,0.1,3.4-1c0.1-0.1,0.1-0.3-0.2-0.4  C34.2,33.6,33.4,33.4,33.1,33.4 M23.7,30.4c-0.9-0.5-1.5-0.3-1.5-0.3s-3.5,1.2-3.9,1.4c-0.3,0.1-0.3,0.3,0,0.5  c1.1,0.7,3.6,2.3,4.7,1.6c0.5-0.3,1.5-0.9,2.7-1.5c0.1-0.1,0.3-0.3,0-0.5C24.9,31.2,24.3,30.8,23.7,30.4 M14.7,22.1  c-0.4-0.6-0.7-0.6-1.3-0.6c-0.5,0-5.4-0.2-5.7-0.2c-0.2,0-0.5,0.2-0.2,0.4c0.8,1.1,2.9,3.6,4.5,3.4c0.8-0.1,2.3-0.2,4.2-0.3  c0.2,0,0.6-0.2,0.3-0.5C15.9,23.6,15.3,22.8,14.7,22.1 M18.8,26.6c-0.2-0.2-0.6-0.5-1.2-0.3c-0.7,0.1-4.5,0.9-4.9,1  c-0.5,0.1-0.5,0.3-0.1,0.6c1,0.8,3.2,2.2,4.9,1.7c0.6-0.2,1.7-0.6,2.9-1c0.2-0.1,0.5-0.3,0.1-0.6C19.9,27.5,19.3,27.1,18.8,26.6   M55.6,29.7l0.3,1.7c0,0,0.1,0.7,0.4,0.2c0.3-0.4,1.2-0.8,2,0.3c0.6,0.8,2.9,1.1,3.8,1.2c0.2,0,0.3-0.1,0.2-0.3  c-0.6-0.9-2.1-3.3-2.2-3.4c-0.1-0.2,0.3-0.3,0.5-0.1c0.2,0.3,0.8,1.2,2,2.6c1.1,1.3,3.2,1.2,4.1,1.1c0.3,0,0.4-0.2,0.2-0.4  c-1-0.9-3.9-3.9-4.1-4c-0.1-0.1,0.2-0.4,0.4-0.2c0.4,0.4,2,1.8,3.4,3c1.3,1.2,3.3,0.8,4.2,0.6c0.3-0.1,0.3-0.2,0.1-0.4  c-1.2-0.9-5.3-4-5.5-4.1s0.1-0.5,0.3-0.4c0.9,0.5,4.9,3.1,6,3.8c0.9,0.6,3.4-0.7,4.3-1.3c0.2-0.1,0.2-0.3-0.1-0.4  c-1.8-0.7-9.1-3.7-9.2-3.7c-0.2-0.1-0.1-0.5,0.1-0.4c1.1,0.3,7.4,2.2,9.4,2.7c1.6,0.5,3.7-1.1,4.5-1.8c0.3-0.2,0.2-0.4-0.1-0.4  c-2.4-0.4-12.8-1.9-13-1.9s-0.2-0.5,0.1-0.5c1.4,0.1,11,1.1,12.8,1.3c1.4,0.2,3.4-1.9,4.1-2.9c0.2-0.3,0.1-0.5-0.3-0.5  c-3,0-15.9,0.1-16,0.1s-0.3-0.5,0.1-0.5c1.5-0.1,13.8-0.5,16-0.6c1.8-0.1,3.8-3.2,4.5-4.5c0.2-0.3,0-0.5-0.5-0.4  c-3.8,0.5-20.5,2.7-24.5,3.2c-0.3,0-0.4,0.3-0.4,0.6c1.5,8.9-3.9,8.7-6,7.7c-0.2-0.1-0.3,0.1-0.3,0.1L55.6,29.7z M71.1,32.5  c-0.6,0.2-1.2,0.3-1.7,0.5c-0.6,0.2-0.2,0.5-0.1,0.6c0.2,0.2,0.3,0.3,0.5,0.5c1.3,1.2,3.2,0.9,4.2,0.7c0.4-0.1,0.5-0.3,0.2-0.5  S72,32.7,72,32.7S71.7,32.3,71.1,32.5 M62.1,33.6c-0.7,0.1-1.3,0.1-2,0.1c-0.2,0-0.3,0.1-0.2,0.2c0.5,0.6,2.1,0.8,2.9,0.9  c0.3,0,0.2-0.2,0.2-0.3s-0.4-0.6-0.4-0.7C62.4,33.7,62.3,33.6,62.1,33.6 M87.8,18.7c-0.1,0.2-0.3,0.4-0.4,0.7  c-0.2,0.3,0,0.7,0.6,0.7c2.2-0.1,3.8-0.3,4.6-0.4c2-0.2,4-3.7,4.8-5.1c0.2-0.4,0-0.6-0.5-0.5c-0.3,0.1-0.8,0.1-1.3,0.2L91.1,15  c0,0-1,0.1-1.6,1L87.8,18.7z M66.9,33.4c-0.3,0.1-1.1,0.3-1.7,0.3C65,33.8,65,34,65.1,34.1c0.9,1.1,2.6,1.1,3.4,1  c0.3,0,0.3-0.2,0.2-0.4c-0.2-0.2-1.2-1.2-1.2-1.2S67.2,33.3,66.9,33.4 M76.3,30.4c-0.6,0.4-1.2,0.8-1.8,1.2c-0.3,0.2-0.2,0.4,0,0.5  c1.1,0.6,2.2,1.2,2.7,1.5c1.1,0.6,3.6-0.9,4.7-1.6c0.3-0.2,0.2-0.4-0.1-0.5c-0.3-0.1-3.9-1.4-3.9-1.4S77.1,29.9,76.3,30.4   M85.3,22.1c-0.6,0.7-1.2,1.5-1.8,2.2c-0.2,0.3,0.1,0.5,0.3,0.5c1.9,0.1,3.4,0.3,4.2,0.3c1.6,0.2,3.7-2.3,4.5-3.4  c0.2-0.3,0-0.5-0.2-0.4c-0.2,0-5.1,0.1-5.7,0.2C86,21.5,85.7,21.5,85.3,22.1 M81.2,26.6c-0.5,0.5-1.1,0.9-1.7,1.3  c-0.4,0.3-0.1,0.6,0.1,0.6c1.2,0.4,2.3,0.8,2.9,1c1.7,0.5,3.9-0.9,4.9-1.7c0.4-0.3,0.3-0.6-0.1-0.6c-0.5-0.1-4.2-0.8-4.9-1  C81.8,26.1,81.4,26.5,81.2,26.6 M55.6,25.2c0-3.1-2.5-5.6-5.6-5.6s-5.6,2.5-5.6,5.6c0,1.4,0.5,2.8,1.4,3.8v1.5  c0,0.2,0.2,0.4,0.4,0.4h7.6c0.2,0,0.4-0.2,0.4-0.4V29C55.1,28,55.6,26.6,55.6,25.2z M51.8,61.4l0.1-3.7H48l0.1,3.7  C48.7,61.4,51.6,61.4,51.8,61.4z M51.3,75.7l0.1-3.7h-2.9l0.1,3.8C48.9,75.7,51.3,75.7,51.3,75.7z M48.4,68.5h3.1l0.1-3.7h-3.4  L48.4,68.5z M47.9,54.2H52l0.2-4.5h-4.5L47.9,54.2z M52.4,46l0.4-11.9h-5.6L47.6,46H52.4z M60,36.6c-0.5-0.7-1.5-1.3-2.7-1.5  c-1.9-0.4-3.7,0.2-4,1.3c-0.2,1.2,1.1,2,3.1,2.4c0.9,0.2,1.8,0.6,2.5,0.4c1.2,0.5,2.4,1.5,2.4,3.4l0,0c0,2.2-1.7,3.2-3.4,3.6  c1.1,0.5,1.8,1.2,2.3,2.1c1.9-0.8,3.9-2.4,3.9-5.7l0,0C64.1,38.9,61.7,37.3,60,36.6z M55.6,36.4c-0.5,0-1-0.2-1-0.5s0.4-0.5,1-0.5  s1,0.2,1,0.5S56.1,36.4,55.6,36.4z M55.6,46.6h-1.8l0,0H50h-3.8c0,0,0,0-0.1,0h-0.5c0,0-7,0.5-7-3.9l0,0c0-2,1.2-3,2.4-3.5  c0.7,0.2,1.6-0.2,2.6-0.4c1.9-0.4,3.3-1.2,3.1-2.4s-2-1.7-4-1.3c-1.2,0.3-2.2,0.8-2.7,1.5c-1.8,0.7-4.2,2.3-4.2,6l0,0  c0,3.9,2.8,5.5,5,6.1l0,0c0,0,0,0,0.1,0s0.3,0.1,0.4,0.1h0.1c1.2,0.3,2,0.3,2,0.3h0.1h1.9l0,0H52h2.2l0,0l0,0c0.4,0,3.3,0.1,3.3,2.8  l0,0c0,2.9-3.4,2.8-3.4,2.8s-3.3,0-3.7,0h-0.2h-0.5h-5.2l0,0l0,0c0,0,0,0-0.1,0l0,0c0,0-0.1,0-0.2,0c0,0,0,0-0.1,0s-0.1,0-0.2,0  h-0.1c-0.1,0-0.1,0-0.2,0.1h-0.1c-0.2,0.1-0.4,0.2-0.7,0.4c0,0-0.1,0-0.1,0.1c-0.1,0.1-0.2,0.2-0.3,0.2l-0.1,0.1  c-0.1,0.1-0.2,0.2-0.3,0.3c0,0,0,0-0.1,0.1l0,0c-0.4,0.7-0.8,1.7-0.8,3.3c0,2.8,1.6,3.9,3,4.4l0,0c0.1,0,0.2,0.1,0.4,0.1h0.1  c0.1,0,0.2,0,0.3,0.1H45c0.1,0,0.2,0,0.2,0h0.1c0.1,0,0.2,0,0.3,0l0,0c0.1,0,0.2,0,0.2,0l0,0c0.1,0,0.1,0,0.2,0l0,0h3.4h1.1h1.4  c0,0,0.9-0.1,0.9,2.4l0,0c0,2.3-2.6,2.4-2.9,2.4l0,0l0,0l0,0l0,0h-0.3H50h-1.9l0,0l0,0l0,0c0,0,0,0-0.1,0c0,0-0.1,0-0.2,0l0,0  c-0.1,0-0.1,0-0.2,0c0,0,0,0-0.1,0s-0.1,0-0.2,0.1h-0.1c-0.1,0-0.2,0.1-0.3,0.1c0,0,0,0-0.1,0c-0.2,0.1-0.5,0.3-0.7,0.5  c0,0,0,0-0.1,0.1s-0.2,0.2-0.3,0.3l0,0l0,0c-0.5,0.7-0.9,1.8-0.9,3.5c0,4.8,4.1,4.4,5,4.4c0.1,0,0.1,0,0.2,0h0.7l0,0  c0.3,0,0.5,0,0.5,0s1.1,0.3,1.1,1.8C52.2,81,51,81.3,51,81.3l0,0l0.1-2.7h-2.3l0.1,2.6c0,0-1.3-0.3-1.4-1.8c0-0.4,0.1-0.8,0.2-1  c-0.5-0.1-1-0.3-1.5-0.6c-0.1,0.4-0.2,0.9-0.2,1.6c0,2.2,2.1,3.2,2.9,3.2L49,85c0,0.2,0.2,0.5,0.9,0.5c0.8,0,0.9-0.3,0.9-0.5  l0.1-2.4c0.9-0.1,3-1,3-3.2c0-3.5-3-3.6-3.3-3.6l0,0l0,0h-0.8h-0.2h-0.4c0,0-2.8,0.1-2.8-2.4s1.1-2.4,1.1-2.4H49h0.7h0.8l0,0l0,0  c0,0,0,0,0.1,0c0,0,0,0,0.1,0s0.4,0,0.6-0.1h0.1c0.1,0,0.2,0,0.3-0.1h0.1c0.1,0,0.2-0.1,0.3-0.1s0.1,0,0.2-0.1  c0.1,0,0.2-0.1,0.3-0.1s0.1,0,0.2-0.1c0.1,0,0.2-0.1,0.3-0.2c0.1,0,0.1-0.1,0.2-0.1c0.1-0.1,0.2-0.2,0.4-0.2c0,0,0.1,0,0.1-0.1l0,0  c0.9-0.7,1.6-1.8,1.6-3.7l0,0c0-1.6-0.3-2.6-0.8-3.3c0,0,0-0.1-0.1-0.1c-0.1-0.1-0.2-0.3-0.3-0.4c0,0,0,0,0-0.1  c-0.1-0.1-0.3-0.2-0.4-0.3l0,0c-0.1-0.1-0.2-0.1-0.3-0.2c0,0,0,0-0.1,0c-0.2-0.1-0.5-0.2-0.6-0.2c0,0,0,0-0.1,0s-0.1,0-0.2,0l0,0  c-0.1,0-0.1,0-0.1,0l0,0l0,0c0,0-3.5,0-4.1,0H47l0,0c-0.2,0-0.3,0-0.3,0s-3,0.1-3-2.4s0.9-2.4,0.9-2.4s0.5,0,1.2,0h3.8h2.3h1.5  c0,0,0.1,0,0.3,0l0,0c0.1,0,0.2,0,0.3,0l0,0c0.1,0,0.2,0,0.4,0l0,0c0.8-0.1,1.8-0.3,2.8-0.8l0,0c1.4-0.7,2.6-2,2.6-4.4  C60.1,46.5,55.6,46.6,55.6,46.6z M44.4,35.4c0.5,0,1,0.2,1,0.5s-0.4,0.5-1,0.5c-0.5,0-1-0.2-1-0.5C43.4,35.6,43.9,35.4,44.4,35.4z" fill="url(#g__egde7b3b7_209)"/>
    </svg>
  </g>
</svg>